Coordinates
version=1
nRows=6
nColumns=63
inDegrees=yes

Units are S.I. units (second, meters, Newtons, ...)
If the header above contains a line with 'inDegrees', this indicates whether rotational values are in degrees (yes) or radians (no).

endheader
time	pelvis_tilt	pelvis_list	pelvis_rotation	pelvis_tx	pelvis_ty	pelvis_tz	hip_flexion_r	hip_adduction_r	hip_rotation_r	knee_angle_r	knee_angle_r_beta	ankle_angle_r	subtalar_angle_r	mtp_angle_r	hip_flexion_l	hip_adduction_l	hip_rotation_l	knee_angle_l	knee_angle_l_beta	ankle_angle_l	subtalar_angle_l	mtp_angle_l	L5_S1_Flex_Ext	L5_S1_Lat_Bending	L5_S1_axial_rotation	L4_L5_Flex_Ext	L4_L5_Lat_Bending	L4_L5_axial_rotation	L3_L4_Flex_Ext	L3_L4_Lat_Bending	L3_L4_axial_rotation	L2_L3_Flex_Ext	L2_L3_Lat_Bending	L2_L3_axial_rotation	L1_L2_Flex_Ext	L1_L2_Lat_Bending	L1_L2_axial_rotation	L1_T12_Flex_Ext	L1_T12_Lat_Bending	L1_T12_axial_rotation	Abs_r3	Abs_r2	Abs_r1	Abs_t1	Abs_t2	neck_flexion	neck_bending	neck_rotation	arm_flex_r	arm_add_r	arm_rot_r	elbow_flex_r	pro_sup_r	wrist_flex_r	wrist_dev_r	arm_flex_l	arm_add_l	arm_rot_l	elbow_flex_l	pro_sup_l	wrist_flex_l	wrist_dev_l
0.000000	-1.026451	-2.166400	89.528640	0.218530	0.871708	0.716610	8.134720	-1.996272	-8.443667	8.975515	0.156652	27.348116	14.830576	0.000000	6.967954	1.392635	-1.474020	6.292669	0.109828	19.375603	-7.312265	0.000000	0.282534	-0.260091	1.341394	0.524694	-0.345921	1.425231	0.464175	-0.632385	1.425231	0.322908	-0.632385	1.173719	0.262361	-0.530378	1.089882	0.161440	-0.402881	1.006045	2.018111	-2.942202	7.460429	0.000000	0.000000	11.499730	2.813296	-0.388053	8.209034	-6.708820	46.957393	46.077870	38.541359	-1.525892	15.021005	11.764205	-7.274504	41.694496	39.646825	76.194782	9.055166	5.044121
0.025641	-1.109306	-2.012041	89.332000	0.219395	0.872305	0.716254	8.239160	-2.080090	-9.080022	9.536932	0.166451	27.441024	15.355977	0.000000	6.764824	1.455467	-1.553365	6.307329	0.110084	18.743358	-8.160788	0.000000	0.274407	-0.278945	1.403305	0.509601	-0.370997	1.491011	0.450823	-0.678228	1.491011	0.313620	-0.678228	1.227892	0.254814	-0.568825	1.140185	0.156796	-0.432086	1.052479	1.960063	-3.155485	7.804761	0.000000	0.000000	11.348811	2.658024	-1.018089	8.815057	-6.770157	49.211970	45.376669	37.584679	-1.104052	12.813434	11.397240	-7.197247	40.247415	40.212452	78.038539	7.403327	4.673514
0.051282	-1.179237	-1.881175	89.137219	0.220138	0.872811	0.715930	8.297097	-2.135874	-9.422825	9.940417	0.173493	27.482610	15.653146	0.000000	6.584183	1.501477	-1.773312	6.304500	0.110034	18.259067	-8.673206	0.000000	0.267056	-0.293932	1.470650	0.495951	-0.390930	1.562565	0.438747	-0.714667	1.562565	0.305219	-0.714667	1.286818	0.247989	-0.599386	1.194903	0.152596	-0.455301	1.102987	1.907558	-3.325019	8.179312	0.000000	0.000000	11.153603	2.570733	-1.580334	9.251644	-6.838771	51.032913	44.825718	36.735579	-0.854381	10.948599	11.117308	-7.097000	39.205228	40.557443	79.535209	6.264024	4.484043
0.076923	-1.236855	-1.771630	88.947427	0.220765	0.873231	0.715642	8.314866	-2.166957	-9.509158	10.205873	0.178126	27.480063	15.748697	0.000000	6.424769	1.532158	-2.112926	6.287393	0.109736	17.909802	-8.886416	0.000000	0.260387	-0.305323	1.542045	0.483564	-0.406080	1.638423	0.427789	-0.742362	1.638423	0.297596	-0.742362	1.349290	0.241795	-0.622615	1.252912	0.148785	-0.472945	1.156534	1.859915	-3.453876	8.576394	0.000000	0.000000	10.924163	2.542385	-2.080801	9.533768	-6.912329	52.446407	44.410965	36.002509	-0.755142	9.405063	10.917426	-6.977417	38.531711	40.705697	80.704979	5.580687	4.453078
0.102564	-1.282773	-1.681237	88.765756	0.221282	0.873569	0.715390	8.298800	-2.176671	-9.376104	10.353205	0.180698	27.440571	15.669247	0.000000	6.285319	1.549003	-2.551274	6.259219	0.109244	17.682637	-8.837315	0.000000	0.254302	-0.313390	1.616109	0.472265	-0.416808	1.717116	0.417793	-0.761976	1.717116	0.290642	-0.761976	1.414095	0.236145	-0.639064	1.313089	0.145308	-0.485441	1.212082	1.816455	-3.545126	8.988314	0.000000	0.000000	10.670546	2.563943	-2.525503	9.676404	-6.988500	53.478637	44.118358	35.393919	-0.784601	8.161388	10.790615	-6.842154	38.190636	40.681116	81.568032	5.296745	4.557990
0.128205	-1.317603	-1.607826	88.595338	0.221695	0.873830	0.715177	8.255235	-2.168349	-9.060748	10.402319	0.181555	27.371324	15.441411	0.000000	6.164570	1.553505	-3.067421	6.223189	0.108615	17.564643	-8.562799	0.000000	0.248708	-0.318403	1.691458	0.461876	-0.423477	1.797174	0.408603	-0.774166	1.797174	0.284248	-0.774166	1.480026	0.230950	-0.649288	1.374310	0.142112	-0.493207	1.268594	1.776497	-3.601843	9.407382	0.000000	0.000000	10.402810	2.626370	-2.920452	9.694524	-7.064952	54.155789	43.933844	34.918260	-0.921023	7.196136	10.729893	-6.694865	38.145778	40.507597	82.144553	5.355630	4.776148
